<svg id="visual" viewBox="0 0 900 600" width="900" height="600" xmlns="http://www.w3.org/2000/svg" xmlns:xlink="http://www.w3.org/1999/xlink" version="1.1"><path d="M0 121L39 121L39 67L78 67L78 13L117 13L117 67L157 67L157 85L196 85L196 49L235 49L235 85L274 85L274 133L313 133L313 67L352 67L352 127L391 127L391 49L430 49L430 85L470 85L470 145L509 145L509 61L548 61L548 91L587 91L587 79L626 79L626 61L665 61L665 49L704 49L704 55L743 55L743 103L783 103L783 37L822 37L822 109L861 109L861 97L900 97L900 127L900 0L900 0L861 0L861 0L822 0L822 0L783 0L783 0L743 0L743 0L704 0L704 0L665 0L665 0L626 0L626 0L587 0L587 0L548 0L548 0L509 0L509 0L470 0L470 0L430 0L430 0L391 0L391 0L352 0L352 0L313 0L313 0L274 0L274 0L235 0L235 0L196 0L196 0L157 0L157 0L117 0L117 0L78 0L78 0L39 0L39 0L0 0Z" fill="#fa7268"></path><path d="M0 265L39 265L39 103L78 103L78 139L117 139L117 259L157 259L157 103L196 103L196 193L235 193L235 139L274 139L274 331L313 331L313 163L352 163L352 151L391 151L391 259L430 259L430 187L470 187L470 169L509 169L509 169L548 169L548 175L587 175L587 157L626 157L626 109L665 109L665 265L704 265L704 205L743 205L743 175L783 175L783 199L822 199L822 283L861 283L861 169L900 169L900 175L900 125L900 95L861 95L861 107L822 107L822 35L783 35L783 101L743 101L743 53L704 53L704 47L665 47L665 59L626 59L626 77L587 77L587 89L548 89L548 59L509 59L509 143L470 143L470 83L430 83L430 47L391 47L391 125L352 125L352 65L313 65L313 131L274 131L274 83L235 83L235 47L196 47L196 83L157 83L157 65L117 65L117 11L78 11L78 65L39 65L39 119L0 119Z" fill="#ed6266"></path><path d="M0 487L39 487L39 391L78 391L78 325L117 325L117 469L157 469L157 403L196 403L196 439L235 439L235 283L274 283L274 445L313 445L313 385L352 385L352 175L391 175L391 367L430 367L430 403L470 403L470 385L509 385L509 181L548 181L548 307L587 307L587 325L626 325L626 139L665 139L665 361L704 361L704 271L743 271L743 451L783 451L783 295L822 295L822 481L861 481L861 295L900 295L900 403L900 173L900 167L861 167L861 281L822 281L822 197L783 197L783 173L743 173L743 203L704 203L704 263L665 263L665 107L626 107L626 155L587 155L587 173L548 173L548 167L509 167L509 167L470 167L470 185L430 185L430 257L391 257L391 149L352 149L352 161L313 161L313 329L274 329L274 137L235 137L235 191L196 191L196 101L157 101L157 257L117 257L117 137L78 137L78 101L39 101L39 263L0 263Z" fill="#df5265"></path><path d="M0 535L39 535L39 487L78 487L78 415L117 415L117 487L157 487L157 457L196 457L196 523L235 523L235 451L274 451L274 553L313 553L313 451L352 451L352 505L391 505L391 481L430 481L430 481L470 481L470 535L509 535L509 511L548 511L548 457L587 457L587 409L626 409L626 469L665 469L665 499L704 499L704 499L743 499L743 475L783 475L783 493L822 493L822 505L861 505L861 409L900 409L900 535L900 401L900 293L861 293L861 479L822 479L822 293L783 293L783 449L743 449L743 269L704 269L704 359L665 359L665 137L626 137L626 323L587 323L587 305L548 305L548 179L509 179L509 383L470 383L470 401L430 401L430 365L391 365L391 173L352 173L352 383L313 383L313 443L274 443L274 281L235 281L235 437L196 437L196 401L157 401L157 467L117 467L117 323L78 323L78 389L39 389L39 485L0 485Z" fill="#d04263"></path><path d="M0 535L39 535L39 511L78 511L78 541L117 541L117 559L157 559L157 589L196 589L196 559L235 559L235 493L274 493L274 589L313 589L313 589L352 589L352 517L391 517L391 559L430 559L430 583L470 583L470 541L509 541L509 529L548 529L548 583L587 583L587 529L626 529L626 559L665 559L665 517L704 517L704 547L743 547L743 535L783 535L783 493L822 493L822 547L861 547L861 505L900 505L900 589L900 533L900 407L861 407L861 503L822 503L822 491L783 491L783 473L743 473L743 497L704 497L704 497L665 497L665 467L626 467L626 407L587 407L587 455L548 455L548 509L509 509L509 533L470 533L470 479L430 479L430 479L391 479L391 503L352 503L352 449L313 449L313 551L274 551L274 449L235 449L235 521L196 521L196 455L157 455L157 485L117 485L117 413L78 413L78 485L39 485L39 533L0 533Z" fill="#c13361"></path><path d="M0 601L39 601L39 601L78 601L78 601L117 601L117 601L157 601L157 601L196 601L196 601L235 601L235 601L274 601L274 601L313 601L313 601L352 601L352 601L391 601L391 601L430 601L430 601L470 601L470 601L509 601L509 601L548 601L548 601L587 601L587 601L626 601L626 601L665 601L665 601L704 601L704 601L743 601L743 601L783 601L783 601L822 601L822 601L861 601L861 601L900 601L900 601L900 587L900 503L861 503L861 545L822 545L822 491L783 491L783 533L743 533L743 545L704 545L704 515L665 515L665 557L626 557L626 527L587 527L587 581L548 581L548 527L509 527L509 539L470 539L470 581L430 581L430 557L391 557L391 515L352 515L352 587L313 587L313 587L274 587L274 491L235 491L235 557L196 557L196 587L157 587L157 557L117 557L117 539L78 539L78 509L39 509L39 533L0 533Z" fill="#b0235f"></path></svg>